<svg width="113" height="26" viewBox="0 0 113 26" fill="none" xmlns="http://www.w3.org/2000/svg">
<path d="M17.7493 19.2158C17.3244 19.2166 16.9052 19.1174 16.5256 18.9263C16.1386 18.734 15.8163 18.4327 15.5983 18.0596C15.3666 17.6761 15.2465 17.2355 15.2516 16.7874V9.2127C15.2518 9.12762 15.2346 9.0434 15.2009 8.96528C15.1672 8.88716 15.1178 8.81679 15.0557 8.75857C14.9648 8.66948 14.8497 8.609 14.7247 8.58459C14.5997 8.56018 14.4703 8.57292 14.3525 8.62122C14.2347 8.66953 14.1336 8.75129 14.0618 8.85641C13.9899 8.96152 13.9504 9.08539 13.9481 9.2127V16.7874C13.9543 17.1137 13.89 17.4374 13.7596 17.7366C13.6292 18.0357 13.4357 18.3032 13.1924 18.5207C12.703 18.9761 12.0564 19.2245 11.388 19.214C11.0663 19.2228 10.7462 19.1661 10.447 19.0474C10.1479 18.9288 9.87596 18.7506 9.64775 18.5237C9.41954 18.2968 9.2398 18.0258 9.11942 17.7274C8.99905 17.4289 8.94055 17.1091 8.94747 16.7874V9.2127C8.94803 9.12773 8.93108 9.04356 8.89768 8.96543C8.86428 8.8873 8.81515 8.81688 8.75334 8.75857C8.68471 8.69214 8.6031 8.6406 8.51362 8.6072C8.42413 8.57379 8.32871 8.55923 8.23334 8.56444C8.1379 8.55859 8.0423 8.57285 7.95273 8.60629C7.86315 8.63973 7.7816 8.69161 7.71334 8.75857C7.6513 8.81679 7.6019 8.88716 7.56821 8.96528C7.53451 9.0434 7.51724 9.12762 7.51747 9.2127V19.2158H5.74254V9.2127C5.73541 8.88628 5.7993 8.56221 5.92979 8.26293C6.06028 7.96364 6.25425 7.69628 6.49827 7.47937C6.98731 7.0234 7.63413 6.77486 8.30267 6.78603C8.62423 6.77751 8.94418 6.83436 9.24312 6.95314C9.54206 7.07192 9.81377 7.25016 10.0418 7.47705C10.2698 7.70394 10.4494 7.97476 10.5697 8.2731C10.6899 8.57145 10.7484 8.8911 10.7415 9.2127V16.7874C10.7408 16.8725 10.7579 16.9569 10.7916 17.035C10.8253 17.1132 10.875 17.1835 10.9373 17.2415C11.08 17.3667 11.2632 17.4357 11.453 17.4357C11.6428 17.4357 11.8261 17.3667 11.9687 17.2415C12.0307 17.1833 12.0801 17.1129 12.1138 17.0348C12.1475 16.9567 12.1648 16.8725 12.1645 16.7874V9.2127C12.1558 8.89177 12.2128 8.57245 12.332 8.27436C12.4513 7.97628 12.6302 7.70573 12.8579 7.47937C13.3293 7.03408 13.9532 6.78601 14.6016 6.78601C15.2501 6.78601 15.8739 7.03408 16.3453 7.47937C16.573 7.70573 16.752 7.97628 16.8712 8.27436C16.9904 8.57245 17.0474 8.89177 17.0387 9.2127V16.7874C17.0381 16.8723 17.0551 16.9565 17.0885 17.0346C17.1219 17.1128 17.171 17.1832 17.2328 17.2415C17.3754 17.3667 17.5587 17.4357 17.7485 17.4357C17.9382 17.4357 18.1215 17.3667 18.2641 17.2415C18.3265 17.1835 18.3761 17.1132 18.4099 17.035C18.4436 16.9569 18.4607 16.8725 18.46 16.7874V6.7843H20.2488V16.7874C20.2529 17.2353 20.1329 17.6757 19.9021 18.0596C19.684 18.4327 19.3617 18.7339 18.9748 18.9263C18.5945 19.1171 18.1748 19.2162 17.7493 19.2158Z" fill="#CCCCCC"/>
<path fill-rule="evenodd" clip-rule="evenodd" d="M13 24.2667C19.2224 24.2667 24.2667 19.2224 24.2667 13C24.2667 6.77759 19.2224 1.73333 13 1.73333C6.77759 1.73333 1.73333 6.77759 1.73333 13C1.73333 19.2224 6.77759 24.2667 13 24.2667ZM13 26C20.1797 26 26 20.1797 26 13C26 5.8203 20.1797 0 13 0C5.8203 0 0 5.8203 0 13C0 20.1797 5.8203 26 13 26Z" fill="#CCCCCC"/>
<path d="M43.5585 15.5468L43.4886 16.0179L43.4243 15.7243L41.2786 7.90894H39.7675L37.5869 15.7005L37.5086 16.036L37.4429 15.5608L35.6928 7.90894H34L36.6238 18.1831H38.2047L40.5266 10.2447L42.7813 18.1831H44.3706L47.0014 7.90894H45.3016L43.5585 15.5468Z" fill="#CCCCCC"/>
<path d="M63.8916 15.811L60.4962 7.9104H58.324V18.1818H60.021L59.8588 10.2266L63.2584 18.1818H64.5067L67.9146 10.1931L67.7525 18.1818H69.4495V7.9104H67.2688L63.8916 15.811Z" fill="#CCCCCC"/>
<path d="M55.6821 8.77707C54.9719 8.19417 54.0046 7.89783 52.8109 7.89783H48.6788V18.1692H50.3842V14.3335H52.7927C54.0508 14.3335 55.0293 14.0539 55.7184 13.4948C56.4075 12.9357 56.7584 12.1431 56.7584 11.1436C56.7584 10.1442 56.3964 9.36277 55.6821 8.77707ZM55.0446 11.1674C55.0446 11.7265 54.8489 12.1724 54.4645 12.4716C54.0801 12.7707 53.521 12.9259 52.8109 12.9259H50.3842V9.32084H52.8542C53.535 9.32084 54.0759 9.50116 54.4631 9.83944C54.6527 10.0037 54.8032 10.2081 54.9038 10.4378C55.0044 10.6675 55.0525 10.9167 55.0446 11.1674Z" fill="#CCCCCC"/>
<path d="M77.8379 15.0422C77.8379 15.7411 77.6311 16.2807 77.2257 16.6413C76.8203 17.002 76.2318 17.1865 75.4812 17.1865C74.7305 17.1865 74.1267 16.9992 73.7199 16.6274C73.3131 16.2555 73.1076 15.7258 73.1076 15.0366V7.90759H71.4204V15.1093C71.4372 16.1773 71.8132 17.0341 72.5387 17.6548C73.2642 18.2754 74.2525 18.5872 75.4826 18.5872C76.7127 18.5872 77.701 18.2615 78.4348 17.6198C79.1687 16.9782 79.5433 16.1074 79.5433 15.038V7.90899H77.8379V15.0422Z" fill="#CCCCCC"/>
<path d="M90.7331 8.49886C89.9486 8.09749 89.0771 7.89584 88.196 7.91176H84.9935V18.1832H88.0395C89.5771 18.1832 90.8212 17.7414 91.7326 16.8678C92.644 15.9941 93.1067 14.8059 93.1067 13.3312V12.6561C93.1044 11.7861 92.8828 10.9308 92.4623 10.1693C92.0592 9.45725 91.4586 8.87709 90.7331 8.49886ZM86.6975 9.33757H88.1946C89.2458 9.33757 90.0524 9.63391 90.5933 10.2196C91.1343 10.8053 91.4097 11.6594 91.4097 12.7637V13.3228C91.4097 14.4257 91.1217 15.2868 90.5542 15.8809C89.9867 16.475 89.1563 16.7769 88.0898 16.7769H86.6919L86.6975 9.33757Z" fill="#CCCCCC"/>
<path d="M94.7841 18.1818H101.856V16.777H96.4881V13.5829H101.147V12.1696H96.4881V9.33341H101.856V7.9104H94.7841V18.1818Z" fill="#CCCCCC"/>
<path d="M110.929 7.9104L107.931 16.2821L104.948 7.9104H103.114L107.148 18.1818H108.721L112.755 7.9104H110.929Z" fill="#CCCCCC"/>
</svg>
